<?xml version="1.0" standalone="no"?>
<!DOCTYPE svg PUBLIC "-//W3C//DTD SVG 20010904//EN"
 "http://www.w3.org/TR/2001/REC-SVG-20010904/DTD/svg10.dtd">
<svg version="1.0" xmlns="http://www.w3.org/2000/svg"
 width="321.000000pt" height="191.000000pt" viewBox="0 0 321.000000 191.000000"
 preserveAspectRatio="xMidYMid meet">

<g transform="translate(0.000000,191.000000) scale(0.100000,-0.100000)"
fill="#000000" stroke="none">
<path d="M529 1747 c-105 -36 -209 -141 -264 -264 -27 -62 -29 -78 -30 -183 0
-110 1 -118 34 -188 59 -126 180 -217 341 -258 132 -34 353 -1 474 70 55 32
58 32 50 1 -4 -15 4 -54 21 -102 31 -91 29 -146 -10 -222 -28 -57 -48 -67
-168 -86 -90 -14 -93 -15 -139 -64 -51 -53 -57 -68 -32 -78 9 -3 28 6 47 24
47 45 63 50 177 63 58 6 119 15 137 21 42 13 79 58 119 144 l32 69 -30 61 -29
60 35 -40 c20 -22 54 -67 76 -99 37 -53 39 -61 27 -80 -8 -12 -47 -40 -88 -63
-87 -50 -99 -65 -98 -112 1 -63 32 -166 51 -169 15 -3 17 4 11 62 -10 114 4
130 170 181 147 46 156 65 93 189 -27 52 -42 94 -39 104 25 68 70 93 163 93
78 0 105 -5 180 -33 87 -34 142 -68 136 -87 -2 -9 -25 -73 -49 -142 -62 -172
-66 -202 -33 -272 29 -61 48 -74 71 -51 13 14 13 19 -5 54 -31 61 -26 96 25
179 25 41 59 91 76 112 30 38 30 38 12 66 -17 28 -17 28 2 13 11 -7 45 -35 75
-60 235 -198 481 -306 766 -335 65 -7 89 5 82 42 -3 15 -18 19 -93 25 -113 8
-199 35 -297 92 -139 82 -306 262 -293 316 10 40 29 47 138 55 99 7 134 16
149 39 16 23 7 57 -23 88 -19 21 -28 39 -25 50 3 10 9 26 12 37 9 30 -48 87
-100 100 -72 18 -107 7 -216 -65 -97 -64 -97 -64 -235 6 -175 90 -246 118
-343 136 -102 19 -195 14 -274 -16 -53 -20 -167 -95 -269 -179 -106 -87 -258
-141 -394 -141 -228 0 -413 139 -445 335 -18 113 11 221 89 325 100 132 236
183 347 130 95 -46 185 -189 186 -295 1 -102 -77 -175 -189 -175 -121 0 -162
130 -66 209 19 16 30 32 25 35 -6 3 -24 -6 -42 -20 -114 -97 -56 -259 92 -257
73 1 156 47 188 104 57 100 17 259 -94 372 -52 54 -70 66 -122 80 -78 22 -95
21 -175 -6z m1851 -706 c0 -5 -6 -11 -14 -14 -8 -3 -16 -18 -18 -34 l-4 -28
-8 28 c-5 18 -4 32 4 42 14 16 40 20 40 6z"/>
</g>
</svg>
